<?xml version="1.0" standalone="no"?>
<!DOCTYPE svg PUBLIC "-//W3C//DTD SVG 20010904//EN"
 "http://www.w3.org/TR/2001/REC-SVG-20010904/DTD/svg10.dtd">
<svg version="1.0" xmlns="http://www.w3.org/2000/svg"
 width="1024.000000pt" height="1024.000000pt" viewBox="0 0 1024.000000 1024.000000"
 preserveAspectRatio="xMidYMid meet">
<metadata>
Created by potrace 1.15, written by Peter Selinger 2001-2017
</metadata>
<g transform="translate(0.000000,1024.000000) scale(0.100000,-0.100000)"
fill="#000000" stroke="none">
<path d="M2520 9442 c0 -7 -4 -12 -9 -12 -24 0 -318 -151 -381 -196 -19 -14
-66 -43 -105 -66 -38 -23 -74 -47 -80 -54 -5 -7 -35 -28 -65 -47 -31 -19 -62
-43 -70 -53 -8 -9 -27 -24 -41 -33 -93 -57 -453 -417 -510 -510 -9 -14 -24
-33 -33 -41 -10 -8 -34 -39 -53 -70 -19 -30 -40 -59 -47 -65 -7 -5 -31 -41
-54 -80 -22 -38 -48 -79 -57 -90 -23 -29 -98 -165 -150 -275 -26 -52 -58 -117
-72 -145 -14 -27 -41 -95 -60 -149 -19 -55 -38 -105 -44 -112 -10 -12 -79
-243 -79 -264 0 -7 -7 -26 -15 -43 -28 -61 -98 -457 -130 -740 -27 -229 -35
-537 -35 -1262 0 -731 9 -1046 35 -1270 32 -279 93 -635 125 -725 10 -30 35
-116 56 -190 20 -74 40 -137 44 -140 4 -3 15 -27 25 -55 38 -108 67 -181 79
-200 7 -11 34 -67 60 -125 26 -57 51 -107 54 -110 4 -3 27 -43 51 -90 24 -46
50 -90 58 -98 7 -8 22 -30 32 -51 23 -43 126 -191 172 -244 18 -21 46 -57 63
-80 60 -81 277 -304 361 -372 28 -22 56 -48 63 -58 8 -10 31 -29 53 -43 22
-13 51 -38 66 -54 14 -17 30 -30 34 -30 5 0 53 -32 108 -70 54 -39 103 -70
108 -70 6 0 30 -15 54 -32 62 -45 330 -185 391 -203 13 -4 30 -14 39 -21 9 -8
74 -35 145 -59 71 -25 140 -51 154 -59 14 -8 93 -31 175 -51 83 -21 157 -41
166 -46 36 -18 247 -53 544 -90 94 -12 211 -26 260 -32 127 -16 2086 -16 2210
0 50 6 182 23 295 37 255 31 495 72 515 86 6 4 78 24 160 45 83 20 159 43 170
49 11 7 76 32 145 55 69 24 139 51 155 61 17 10 71 34 120 55 50 21 99 46 110
55 11 9 56 34 100 56 44 21 89 46 99 56 11 10 40 28 64 40 25 12 59 33 76 48
17 15 42 33 56 40 27 14 40 24 145 106 157 123 434 398 548 543 93 119 153
211 139 211 -4 0 -23 -13 -42 -29 -19 -15 -69 -45 -110 -66 -41 -22 -77 -42
-80 -47 -3 -4 -49 -27 -102 -51 -53 -24 -103 -49 -110 -55 -16 -13 -147 -69
-197 -84 -19 -5 -46 -18 -60 -28 -14 -9 -80 -35 -146 -56 -66 -21 -122 -42
-125 -46 -5 -6 -161 -52 -430 -128 -36 -10 -144 -32 -240 -50 -96 -18 -184
-36 -195 -41 -44 -20 -337 -55 -760 -91 -182 -16 -700 -16 -885 0 -381 32
-724 73 -765 91 -11 5 -119 28 -240 51 -121 23 -233 48 -249 56 -17 8 -66 23
-110 34 -119 29 -506 159 -529 178 -7 6 -52 26 -102 45 -49 19 -117 48 -150
65 -33 17 -95 46 -137 66 -43 19 -78 39 -78 44 0 22 -44 19 -96 -8 -30 -15
-101 -43 -157 -61 -56 -19 -105 -37 -108 -42 -8 -10 -214 -62 -329 -82 -52 -9
-103 -20 -112 -25 -35 -20 -211 -34 -413 -34 -229 1 -265 7 -265 47 0 23 41
80 87 120 12 11 35 39 50 61 15 23 37 52 49 66 12 14 39 59 59 100 21 41 44
82 51 90 16 20 68 171 83 245 7 33 17 70 22 83 11 29 12 215 0 228 -4 5 -14
32 -20 59 -13 53 -48 120 -89 170 -36 45 -169 249 -176 272 -3 11 -15 29 -25
40 -11 11 -41 63 -67 114 -25 52 -54 105 -64 119 -10 14 -21 36 -25 50 -4 14
-31 75 -60 135 -29 61 -65 148 -81 195 -16 47 -32 88 -37 91 -5 3 -29 73 -53
155 -25 82 -52 163 -60 181 -8 17 -32 116 -55 220 -22 103 -45 196 -50 206
-12 21 -53 278 -80 502 -11 88 -25 196 -31 240 -15 106 -15 893 0 1005 6 47
18 144 26 215 24 193 55 402 70 470 8 33 21 89 30 125 9 36 23 97 31 135 33
145 48 201 65 245 10 25 34 101 55 170 20 69 42 134 49 145 7 11 25 56 41 100
15 44 41 107 57 140 16 33 48 104 70 158 22 53 43 97 47 97 4 0 15 17 25 38
41 85 80 157 86 162 4 3 22 34 41 69 19 35 44 73 56 85 13 11 23 26 23 31 0 6
22 42 50 80 27 39 62 88 77 110 15 22 48 63 73 92 25 28 65 75 90 105 25 29
91 99 148 157 56 57 100 106 97 109 -3 3 -5 0 -5 -6z"/>
<path d="M6520 5570 c0 -904 2 -1096 14 -1124 23 -55 61 -66 230 -66 l146 0 0
1140 0 1140 -195 0 -195 0 0 -1090z"/>
<path d="M2440 6445 l0 -185 635 0 c592 0 635 -1 635 -17 0 -9 -15 -33 -34
-53 -19 -19 -45 -49 -58 -67 -13 -17 -69 -87 -126 -155 -57 -68 -126 -152
-155 -187 -29 -35 -68 -82 -88 -105 -19 -22 -45 -55 -57 -72 -11 -17 -38 -49
-59 -72 -61 -66 -117 -133 -128 -152 -5 -10 -29 -39 -52 -66 -101 -119 -150
-179 -184 -226 -20 -28 -43 -54 -52 -59 -8 -5 -32 -34 -52 -65 -20 -30 -43
-58 -51 -61 -8 -3 -31 -30 -50 -59 -20 -30 -45 -59 -55 -65 -11 -5 -19 -14
-19 -20 0 -6 -13 -27 -29 -47 -16 -20 -41 -59 -55 -87 -23 -44 -26 -62 -26
-147 l0 -98 895 0 c1001 0 947 -4 985 69 18 36 20 56 18 161 l-3 120 -662 0
c-593 0 -663 2 -663 16 0 14 33 60 89 122 13 15 40 50 61 77 20 28 45 56 54
64 10 8 33 38 53 68 19 29 39 53 44 53 5 0 20 19 35 41 14 23 39 55 55 73 15
17 59 69 96 115 37 46 84 104 103 127 19 24 56 70 81 102 25 32 56 69 68 83
13 13 59 69 103 124 44 55 114 142 157 194 42 51 92 114 111 140 19 26 49 62
65 80 91 99 108 125 131 188 17 50 24 89 24 151 l0 82 -920 0 -920 0 0 -185z"/>
<path d="M7960 6140 c-201 -49 -264 -73 -378 -150 -180 -120 -311 -297 -358
-480 -9 -36 -21 -71 -28 -79 -7 -9 -11 -67 -11 -165 0 -130 3 -161 23 -226 34
-109 81 -222 102 -245 10 -11 25 -34 33 -51 9 -18 29 -43 45 -56 16 -13 36
-35 45 -49 9 -14 35 -38 58 -54 23 -17 52 -40 64 -52 37 -37 238 -131 317
-148 159 -34 343 -29 485 11 71 21 234 103 286 145 109 88 257 264 257 307 0
6 5 12 10 14 17 5 67 166 81 258 14 96 6 264 -15 350 -19 74 -52 167 -66 182
-6 7 -27 41 -48 75 -93 156 -276 305 -438 356 -43 14 -104 34 -134 43 -61 20
-271 29 -330 14z m305 -385 c28 -8 61 -23 75 -33 14 -9 38 -24 55 -32 58 -29
138 -122 184 -214 42 -83 45 -93 49 -189 5 -105 -13 -212 -41 -247 -7 -8 -23
-35 -36 -60 -13 -25 -50 -71 -83 -103 -54 -54 -86 -73 -223 -132 -79 -34 -251
-27 -339 14 -23 10 -59 27 -81 37 -42 19 -152 124 -198 189 -94 132 -89 436 8
545 13 14 34 44 49 68 14 23 30 42 35 42 5 0 32 18 60 40 91 72 197 101 341
95 52 -2 118 -11 145 -20z"/>
<path d="M5190 6131 c-8 -5 -37 -12 -65 -15 -71 -10 -205 -53 -237 -76 -15
-11 -30 -20 -33 -20 -4 0 -26 -13 -50 -30 -24 -16 -47 -30 -51 -30 -15 0 -141
-127 -178 -179 -21 -31 -41 -58 -45 -61 -12 -10 -50 -86 -71 -145 -12 -33 -29
-78 -37 -100 -34 -91 -33 -375 2 -449 8 -17 21 -53 30 -79 24 -72 51 -132 67
-148 8 -8 28 -35 46 -61 34 -49 159 -178 173 -178 4 0 24 -13 42 -30 19 -16
54 -38 78 -48 24 -11 73 -33 109 -50 36 -17 92 -36 125 -43 86 -19 323 -17
411 3 68 16 242 92 295 129 l27 19 6 -32 c10 -48 46 -99 82 -114 22 -9 75 -14
159 -14 l125 0 0 855 0 855 -185 0 -185 0 0 -60 c0 -69 1 -69 -94 -8 -97 63
-269 108 -431 114 -55 2 -107 0 -115 -5z m262 -379 c105 -29 228 -120 294
-217 11 -16 33 -64 50 -105 26 -66 29 -87 29 -181 0 -59 -5 -117 -11 -130 -7
-13 -28 -58 -46 -99 -43 -93 -132 -184 -216 -222 -137 -62 -142 -63 -257 -63
-111 0 -164 14 -276 70 -77 40 -183 168 -220 266 -26 69 -36 208 -20 288 13
65 54 168 75 185 6 6 29 33 50 59 21 27 46 51 55 54 9 4 32 19 52 34 95 74
294 101 441 61z"/>
</g>
</svg>
